# xmcd
#
# Track frame offsets:
#	150
#	21406
#	27612
#	47108
#	61572
#	94954
#	126096
#	145706
#	172042
#	189161
#	201322
#	217570
#	233698
#	263981
#	274313
#	291369
#
# Disc length: 4026 seconds
#
# Revision: 1
# Processed by: cddbd v1.5.2PL0 Copyright (c) Steve Scherf et al.
# Submitted via: audiograbber 1.83.01
#
DISCID=ed0fb810
DTITLE=Various Artist - Slam Poetry Masters
DYEAR=2009
DGENRE=Poetry Slam
TTITLE0=Volker Strübing - Zug Nach München
TTITLE1=Sebastian23 - Revolution Von Unten
TTITLE2=Nico Herzig - Poesie Für Sie
TTITLE3=Nadja Schlüter - Klara Putzt Und Will Lutz Sein
TTITLE4=Gabriel Vetter - Wazlav Der Hamster
TTITLE5=Simon Chen - 5 Punkte Zu Meiner Person
TTITLE6=Simon Libsig - Heidi
TTITLE7=Renato Kaiser - Ich Will Einmal Nen Slam Gewinnen
TTITLE8=Lara Stoll - Wir Gegen Den Rest Der Welt
TTITLE9=Sebastian 23 - Ich Lüge Immer
TTITLE10=Felix Römer - Wie Ich Einmal Fast Wie Die Anderen Geworden Wäre
TTITLE11=Simon Libsig - Werbung
TTITLE12=Mirco Buchwitz - Die Was Passiert Dann Maschine
TTITLE13=Laurin Buser - S`bild
TTITLE14=Gabriel Vetter - Liebesgedicht
TTITLE15=Lars Ruppel - Daten-CD
EXTD=
EXTT0=
EXTT1=
EXTT2=
EXTT3=
EXTT4=
EXTT5=
EXTT6=
EXTT7=
EXTT8=
EXTT9=
EXTT10=
EXTT11=
EXTT12=
EXTT13=
EXTT14=
EXTT15=
PLAYORDER=
